<?xml version="1.0" encoding="UTF-8"?>
<svg width="128" height="128" viewBox="0 0 128 128" xmlns="http://www.w3.org/2000/svg" role="img" aria-labelledby="title desc">
  <title id="title">Sonar Coverage Exporter Icon</title>
  <desc id="desc">Circular radar style icon with export arrow indicating coverage reporting.</desc>
  <defs>
    <linearGradient id="radar" x1="0%" y1="0%" x2="100%" y2="100%">
      <stop offset="0%" stop-color="#0F62FE" />
      <stop offset="100%" stop-color="#33B1FF" />
    </linearGradient>
    <linearGradient id="arrow" x1="0%" y1="0%" x2="100%" y2="0%">
      <stop offset="0%" stop-color="#FF832B" />
      <stop offset="100%" stop-color="#FFB170" />
    </linearGradient>
  </defs>
  <rect width="128" height="128" rx="26" fill="#0B1B33" />
  <circle cx="64" cy="64" r="42" fill="url(#radar)" opacity="0.9" />
  <circle cx="64" cy="64" r="32" fill="none" stroke="rgba(255,255,255,0.45)" stroke-width="3" />
  <circle cx="64" cy="64" r="20" fill="none" stroke="rgba(255,255,255,0.35)" stroke-width="3" />
  <path d="M64 22v28" stroke="rgba(255,255,255,0.5)" stroke-width="4" stroke-linecap="round" />
  <path d="M64 78c-9 0-16 7-16 16s7 16 16 16 16-7 16-16c0-2.3-0.47-4.6-1.38-6.6l21.38-21.4a6 6 0 0 0-8.49-8.48L70.1 79.92A15.9 15.9 0 0 0 64 78Z" fill="url(#arrow)" />
  <path d="M84 40c0 11.05-8.95 20-20 20s-20-8.95-20-20" fill="none" stroke="rgba(255,255,255,0.65)" stroke-width="5" stroke-linecap="round" />
  <circle cx="44" cy="40" r="4" fill="#FFFFFF" opacity="0.7" />
  <circle cx="84" cy="40" r="4" fill="#FFFFFF" opacity="0.7" />
</svg>
